<svg width="350" height="537" viewBox="0 0 350 537" fill="none" xmlns="http://www.w3.org/2000/svg">
<g clip-path="url(#clip0_2273_5412)">
<rect width="350" height="537" fill="#151515"/>
<g opacity="0.45" filter="url(#filter0_f_2273_5412)">
<path d="M209.705 501.381C295.055 462.302 317.322 370.712 259.44 296.81C201.559 222.909 85.4471 194.68 0.0977631 233.76L-40.1136 252.172C-125.463 291.252 -147.73 382.841 -89.8484 456.743C-31.9668 530.644 84.1447 558.873 169.494 519.793L209.705 501.381Z" fill="url(#paint0_radial_2273_5412)" fill-opacity="0.75"/>
</g>
<g opacity="0.35" filter="url(#filter1_f_2273_5412)">
<path d="M510.106 74.3812C595.455 35.3015 617.722 -56.2879 559.841 -130.19C501.959 -204.091 385.847 -232.32 300.498 -193.24L260.287 -174.828C174.937 -135.748 152.67 -44.1589 210.552 29.7426C268.434 103.644 384.545 131.873 469.894 92.7932L510.106 74.3812Z" fill="url(#paint1_radial_2273_5412)"/>
</g>
</g>
<defs>
<filter id="filter0_f_2273_5412" x="-257.176" y="81.0488" width="683.944" height="591.456" filterUnits="userSpaceOnUse" color-interpolation-filters="sRGB">
<feFlood flood-opacity="0" result="BackgroundImageFix"/>
<feBlend mode="normal" in="SourceGraphic" in2="BackgroundImageFix" result="shape"/>
<feGaussianBlur stdDeviation="67.5618" result="effect1_foregroundBlur_2273_5412"/>
</filter>
<filter id="filter1_f_2273_5412" x="43.2241" y="-345.951" width="683.944" height="591.456" filterUnits="userSpaceOnUse" color-interpolation-filters="sRGB">
<feFlood flood-opacity="0" result="BackgroundImageFix"/>
<feBlend mode="normal" in="SourceGraphic" in2="BackgroundImageFix" result="shape"/>
<feGaussianBlur stdDeviation="67.5618" result="effect1_foregroundBlur_2273_5412"/>
</filter>
<radialGradient id="paint0_radial_2273_5412" cx="0" cy="0" r="1" gradientTransform="matrix(-175.9 -91.4436 -119.846 134.773 62.0475 405.395)" gradientUnits="userSpaceOnUse">
<stop stop-color="white"/>
<stop offset="1" stop-color="#A8DED0" stop-opacity="0.57"/>
</radialGradient>
<radialGradient id="paint1_radial_2273_5412" cx="0" cy="0" r="1" gradientTransform="matrix(-175.9 -91.4436 -119.846 134.773 362.448 -21.6049)" gradientUnits="userSpaceOnUse">
<stop stop-color="white"/>
<stop offset="1" stop-color="#B0E3D6" stop-opacity="0.59"/>
</radialGradient>
<clipPath id="clip0_2273_5412">
<rect width="350" height="537" fill="white"/>
</clipPath>
</defs>
</svg>
